<?xml version="1.0" encoding="UTF-8"?>
<svg id="Layer_1" xmlns="http://www.w3.org/2000/svg" version="1.1" viewBox="0 0 86 86">
  <!-- Generator: Adobe Illustrator 29.1.0, SVG Export Plug-In . SVG Version: 2.1.0 Build 142)  -->
  <defs>
    <style>
      .st0 {
        fill: #2c81b4;
      }

      .st1 {
        fill: #fff;
      }
    </style>
  </defs>
  <path class="st1" d="M43,6.9C23.1,6.9,6.9,23.1,6.9,43s16.2,36.1,36.1,36.1,36.1-16.2,36.1-36.1S62.9,6.9,43,6.9Z"/>
  <path class="st0" d="M43,.8C19.7.8.8,19.7.8,43s18.9,42.2,42.2,42.2,42.2-18.9,42.2-42.2S66.3.8,43,.8ZM65.5,42.8h-19.9c.5,4,3.5,6.6,7.4,6.6s5.5-1.7,6.6-4.3h5.5c-1.4,5.6-6,9.2-12.1,9.2s-11.9-4.6-12.6-11.2h-7v11.4h0c.4,3.7,2.5,5.4,7.4,5.5v5.2h-.6c-7.1,0-11.4-4-11.9-10.7v-11.4h-7.7v-5h7.7v-17.1h5.2v17.2h7.3c1.4-5.7,6.4-9.5,12.3-9.5s12.5,5.5,12.5,12.3v1.9h-.1Z"/>
  <path class="st0" d="M53,33.3c-3.6,0-6.2,2.1-7.1,5.3h14.1c-.6-3.1-3.8-5.3-7-5.3Z"/>
</svg>